<svg id="Capa_1" data-name="Capa 1" xmlns="http://www.w3.org/2000/svg" viewBox="0 0 29.24 29.24"><defs><style>.cls-1{fill:#ffd561;}</style></defs><title>icons(illustrator)</title><path class="cls-1" d="M14.62,0A14.62,14.62,0,1,0,29.24,14.62,14.63,14.63,0,0,0,14.62,0Zm-3.3,21H8.49V11.9h2.83ZM9.91,10.66A1.64,1.64,0,1,1,11.55,9,1.65,1.65,0,0,1,9.91,10.66ZM21.91,21H19.09V16.57c0-1.05,0-2.41-1.47-2.41s-1.7,1.15-1.7,2.34V21H13.1V11.9h2.71v1.24h0a3,3,0,0,1,2.68-1.47c2.87,0,3.39,1.89,3.39,4.34Z"/></svg>