<svg id="Capa_1" data-name="Capa 1" xmlns="http://www.w3.org/2000/svg" viewBox="0 0 29.24 29.24"><defs><style>.cls-1{fill:#ffd561;}</style></defs><title>icons(illustrator)</title><path class="cls-1" d="M18,7.64H11.2a3.55,3.55,0,0,0-3.54,3.54V18a3.55,3.55,0,0,0,3.54,3.54H18A3.55,3.55,0,0,0,21.58,18V11.18A3.55,3.55,0,0,0,18,7.64ZM14.69,18.82a4.22,4.22,0,1,1,4.22-4.22A4.22,4.22,0,0,1,14.69,18.82Zm4.47-7.72a1,1,0,1,1,1-1A1,1,0,0,1,19.16,11.1Z"/><path class="cls-1" d="M14.69,11.9a2.71,2.71,0,1,0,2.71,2.7A2.7,2.7,0,0,0,14.69,11.9Z"/><path class="cls-1" d="M14.62,0A14.62,14.62,0,1,0,29.24,14.62,14.63,14.63,0,0,0,14.62,0Zm8.57,18A5.16,5.16,0,0,1,18,23.17H11.2A5.16,5.16,0,0,1,6.05,18V11.18A5.16,5.16,0,0,1,11.2,6H18a5.16,5.16,0,0,1,5.15,5.15Z"/></svg>